<svg width="128" height="128" viewBox="0 0 128 128" fill="none" xmlns="http://www.w3.org/2000/svg">
<path d="M114 64C114 51.5084 109.324 39.4693 100.893 30.2523C92.4617 21.0352 80.8857 15.308 68.4436 14.1978C56.0015 13.0877 43.5944 16.675 33.6646 24.2538C23.7347 31.8325 17.0013 42.8537 14.7898 55.148C12.5783 67.4422 15.0488 80.119 21.7151 90.6831C28.3814 101.247 38.7605 108.933 50.8096 112.229C62.8586 115.524 75.7048 114.19 86.8196 108.489C97.9343 102.788 106.512 93.1329 110.866 81.4244L107.403 80.1371C103.372 90.9806 95.4273 99.9223 85.1337 105.202C74.8401 110.482 62.943 111.718 51.7841 108.666C40.6252 105.614 31.0128 98.4954 24.8391 88.7118C18.6653 78.9281 16.3773 67.1879 18.4254 55.8019C20.4736 44.416 26.7095 34.2091 35.9057 27.1902C45.102 20.1714 56.5924 16.8491 68.1153 17.8772C79.6382 18.9053 90.359 24.2094 98.1673 32.7455C105.976 41.2816 110.306 52.4313 110.306 64H114Z" fill="#5C6BC0"/>
<path d="M29.5213 45.9812C25.0944 54.5204 24.0241 64.4074 26.5212 73.6961C29.0183 82.9848 34.9019 91.0024 43.0138 96.1708C51.1258 101.339 60.8786 103.284 70.3525 101.622C79.8263 99.9604 88.3351 94.8126 94.2039 87.1921C100.073 79.5715 102.876 70.0302 102.063 60.4461C101.25 50.862 96.8789 41.9295 89.8101 35.4066C82.7413 28.8838 73.4869 25.2432 63.8685 25.2014C54.25 25.1596 44.9643 28.7196 37.8391 35.1808L38.4999 35.9095C45.4431 29.6135 54.4915 26.1444 63.8642 26.1851C73.2368 26.2259 82.2548 29.7735 89.1429 36.1296C96.0311 42.4858 100.291 51.1901 101.083 60.5293C101.875 69.8685 99.1433 79.166 93.4245 86.5918C87.7056 94.0176 79.4143 99.0339 70.1825 100.653C60.9507 102.272 51.4472 100.377 43.5425 95.3411C35.6378 90.3048 29.9045 82.4921 27.4713 73.4407C25.038 64.3894 26.0809 54.755 30.3947 46.434L29.5213 45.9812Z" fill="#9FA8DA"/>
<path d="M57.1 89V87.74H60.425V41.26H57.1V40H69V41.26H65.64V87.74H69V89H57.1Z" fill="white"/>
</svg>
